<?xml version="1.0" standalone="no"?>
<!DOCTYPE svg PUBLIC "-//W3C//DTD SVG 20010904//EN"
 "http://www.w3.org/TR/2001/REC-SVG-20010904/DTD/svg10.dtd">
<svg version="1.0" xmlns="http://www.w3.org/2000/svg"
 width="2560.000000pt" height="2560.000000pt" viewBox="0 0 2560.000000 2560.000000"
 preserveAspectRatio="xMidYMid meet">
<metadata>
Created by potrace 1.11, written by Peter Selinger 2001-2013
</metadata>
<g transform="translate(0.000000,2560.000000) scale(0.100000,-0.100000)"
fill="#000000" stroke="none">
<path d="M7061 25410 c-4 -3 -7 -5631 -6 -12508 l0 -12502 5802 0 5803 0 0
12508 0 12507 -5796 0 c-3188 0 -5799 -2 -5803 -5z m10457 -12500 l-3 -11365
-4660 0 -4660 0 -1 11355 c0 6245 1 11360 3 11365 2 7 1562 10 4663 10 l4660
0 -2 -11365z"/>
<path d="M9326 23140 c-2 -5 0 -9637 3 -9655 1 -7 192 -10 564 -9 309 1 564 2
567 3 3 0 5 1333 5 2960 0 1628 3 2957 6 2955 4 -2 10 -18 14 -36 4 -18 9 -35
10 -38 5 -16 39 -127 41 -135 1 -5 9 -32 19 -60 9 -27 18 -54 19 -60 2 -11 5
-22 112 -365 41 -135 77 -252 79 -260 2 -8 25 -82 50 -165 26 -82 51 -163 55
-180 7 -27 46 -152 71 -230 6 -16 12 -37 14 -45 2 -8 10 -35 18 -60 8 -25 24
-79 37 -120 12 -41 29 -95 37 -120 8 -25 16 -52 18 -60 2 -8 22 -73 44 -145
70 -224 133 -429 142 -460 15 -55 49 -170 53 -180 2 -5 4 -14 6 -20 1 -5 8
-26 16 -45 8 -19 15 -36 15 -37 -1 -2 -1 -4 0 -5 0 -2 2 -10 4 -19 3 -18 53
-182 96 -314 16 -49 29 -97 29 -106 0 -9 3 -19 8 -23 4 -4 7 -11 8 -14 0 -4
11 -41 24 -82 13 -41 24 -80 26 -86 1 -6 20 -69 42 -140 69 -222 95 -309 92
-309 -1 0 5 -18 13 -40 13 -32 68 -205 72 -225 4 -17 28 -98 46 -152 11 -35
22 -70 24 -78 2 -8 4 -16 5 -17 2 -2 3 -6 4 -10 1 -5 10 -35 21 -68 10 -33 19
-65 21 -72 1 -7 9 -34 17 -60 23 -69 100 -321 137 -443 39 -130 37 -124 38
-130 0 -3 6 -18 12 -35 7 -16 13 -37 15 -45 5 -24 132 -432 143 -460 5 -14 9
-27 9 -30 -1 -11 37 -130 42 -131 3 -1 261 -2 573 -3 l567 -1 14 50 c9 27 27
88 42 135 38 121 66 212 70 231 2 9 11 39 20 65 9 27 18 54 19 59 1 6 15 50
30 100 15 49 29 96 31 105 2 8 13 41 24 73 11 31 17 57 14 57 -3 0 -1 6 4 13
6 6 14 26 18 42 12 43 12 43 35 120 12 39 23 77 25 85 2 8 4 15 5 15 1 0 3 7
5 15 2 8 36 119 75 245 40 127 73 235 74 240 2 6 11 37 21 70 11 33 19 62 20
65 1 3 6 21 12 40 6 19 28 89 48 155 20 66 38 125 40 130 1 6 4 17 8 25 9 24
39 124 42 140 4 21 44 147 61 193 8 20 11 37 8 37 -4 0 -1 7 6 15 7 8 9 15 5
15 -4 0 -3 6 2 13 6 6 16 37 23 67 7 30 19 70 27 87 7 18 13 34 12 35 0 2 2
10 4 18 3 8 15 49 27 90 13 41 29 95 37 120 8 25 16 52 18 60 2 8 8 26 13 40
5 14 10 27 10 30 0 3 3 12 5 20 3 8 13 40 22 70 10 30 23 75 30 100 7 25 32
106 55 180 23 74 44 142 45 150 2 8 4 16 5 18 2 1 3 5 4 10 5 21 49 162 62
195 7 20 11 37 8 37 -4 0 -1 7 6 15 7 8 10 15 7 15 -3 0 1 17 10 38 8 20 15
37 14 37 -1 0 0 7 3 15 2 8 13 44 24 80 11 36 26 85 33 110 8 25 15 48 15 53
1 4 3 9 4 12 1 3 3 8 4 13 2 4 11 34 21 67 11 33 19 62 20 65 1 8 46 153 55
180 8 22 58 186 95 310 8 25 29 92 47 150 18 58 33 107 33 110 1 4 37 122 82
265 8 28 16 55 18 60 1 6 5 17 8 25 3 8 34 109 69 224 l63 209 5 -2964 5
-2964 568 0 567 0 0 4835 0 4835 -570 0 -569 0 -17 -50 c-9 -27 -17 -54 -18
-60 -2 -5 -11 -37 -21 -70 -10 -33 -20 -64 -21 -70 -1 -5 -9 -30 -17 -55 -21
-63 -78 -246 -81 -262 -2 -7 -6 -21 -10 -30 -4 -9 -9 -22 -10 -30 -1 -7 -9
-33 -16 -58 -8 -25 -14 -47 -15 -50 0 -3 -13 -44 -28 -92 -16 -48 -30 -95 -32
-105 -2 -10 -15 -52 -30 -93 -14 -41 -25 -76 -25 -78 0 -1 -14 -47 -31 -103
-17 -55 -32 -106 -33 -112 -2 -7 -6 -19 -9 -27 -8 -23 -59 -192 -61 -204 -1
-6 -5 -16 -8 -22 -4 -6 -9 -21 -11 -35 -3 -13 -14 -51 -25 -84 -11 -33 -32
-100 -47 -150 -41 -137 -47 -159 -53 -175 -3 -8 -6 -19 -7 -25 -2 -5 -14 -46
-28 -90 -31 -97 -71 -228 -72 -235 0 -3 -13 -44 -28 -92 -16 -48 -30 -95 -32
-105 -2 -10 -14 -52 -28 -93 -14 -41 -37 -115 -52 -165 -29 -97 -52 -172 -110
-358 -20 -64 -38 -124 -39 -132 -1 -8 -5 -18 -9 -21 -4 -4 -7 -17 -7 -29 0
-11 -5 -26 -12 -33 -7 -7 -9 -12 -5 -12 4 0 1 -17 -7 -37 -8 -21 -24 -72 -36
-113 -12 -41 -29 -95 -37 -119 -8 -24 -16 -51 -18 -60 -2 -9 -10 -35 -19 -59
-8 -23 -16 -46 -17 -50 -3 -13 -6 -25 -54 -182 -26 -85 -48 -159 -50 -165 -1
-5 -5 -17 -8 -25 -3 -8 -15 -49 -27 -90 -12 -41 -29 -95 -37 -120 -8 -25 -16
-52 -18 -60 -2 -8 -10 -35 -18 -60 -8 -25 -25 -79 -37 -120 -12 -41 -30 -100
-40 -130 -10 -30 -28 -89 -40 -130 -12 -41 -29 -95 -37 -120 -8 -25 -16 -52
-18 -60 -2 -8 -8 -28 -15 -45 -6 -16 -12 -32 -12 -35 -1 -6 1 0 -33 -115 -50
-167 -67 -220 -82 -260 -8 -22 -15 -42 -14 -45 0 -3 -5 -23 -11 -45 -6 -22
-12 -42 -12 -45 -1 -3 -4 -9 -7 -15 -4 -5 -10 -26 -15 -45 -10 -42 -9 -41 -17
-60 -12 -31 -38 -119 -42 -143 -3 -13 -12 -41 -20 -61 -8 -20 -16 -39 -16 -43
-1 -5 -3 -12 -5 -18 -2 -5 -24 -80 -49 -165 -25 -85 -50 -166 -56 -180 -5 -14
-11 -34 -13 -45 -3 -11 -19 -65 -36 -120 -43 -135 -62 -198 -64 -210 -1 -5
-16 -55 -34 -110 -17 -55 -49 -160 -72 -234 -22 -73 -42 -136 -45 -140 -2 -4
-6 -18 -9 -32 -2 -13 -11 -44 -19 -69 -14 -43 -70 -220 -72 -230 -1 -3 -7 -25
-15 -50 -7 -25 -15 -53 -17 -63 -2 -10 -9 -30 -16 -43 -12 -24 -14 -21 -40 63
-15 48 -34 113 -44 143 -9 30 -17 57 -18 60 0 3 -9 32 -20 65 -10 33 -19 62
-20 65 0 3 -9 32 -20 65 -10 33 -20 65 -21 70 -1 6 -12 40 -23 78 -12 37 -30
95 -40 130 -11 34 -40 130 -66 212 -26 83 -51 167 -56 187 -5 21 -15 55 -23
75 -8 21 -24 72 -36 113 -35 120 -89 295 -123 400 -6 19 -12 37 -12 40 -1 7
-33 113 -66 215 -15 50 -51 167 -79 260 -29 94 -65 213 -82 265 -29 94 -33
108 -62 205 -8 28 -51 169 -96 315 -45 146 -104 339 -131 430 -28 91 -53 172
-56 180 -3 8 -7 20 -8 26 -4 15 -62 206 -83 269 -9 28 -17 52 -17 55 -2 8 -44
145 -70 230 -53 167 -147 476 -150 490 -2 8 -4 15 -5 15 -1 0 -3 7 -5 15 -2 8
-35 119 -75 245 -39 127 -72 235 -74 240 -1 6 -10 36 -20 67 -10 32 -17 60
-16 63 0 3 -7 19 -15 35 -8 16 -16 33 -16 37 0 17 -12 61 -31 118 -11 33 -21
67 -23 75 -2 8 -14 47 -25 85 -12 39 -30 97 -40 130 -10 33 -44 143 -75 245
-32 102 -61 199 -65 215 -4 17 -14 47 -23 68 -9 20 -14 37 -12 37 3 0 0 12 -6
28 -6 15 -12 34 -14 42 -2 8 -15 51 -29 95 -79 255 -154 501 -161 525 -2 8 -4
15 -5 15 -1 0 -3 7 -5 15 -1 8 -14 51 -28 95 -15 44 -29 94 -33 110 -4 17 -9
35 -13 40 -3 6 -6 15 -7 21 -1 5 -18 62 -37 125 -20 62 -36 117 -36 122 -1 4
-7 23 -15 42 -8 19 -13 35 -11 35 2 0 -2 15 -10 32 l-13 33 -567 0 c-312 0
-568 -2 -569 -5z"/>
<path d="M9407 12335 c-3 -9 -1 -1096 2 -1120 1 -7 491 -10 1456 -10 964 0
1455 -3 1456 -10 1 -5 3 -1920 4 -4255 1 -2335 3 -4250 4 -4255 1 -14 1131
-14 1132 0 1 6 2 1920 3 4255 1 2335 4 4250 8 4255 4 7 500 10 1462 10 l1456
0 0 570 0 570 -3490 0 c-2319 0 -3491 -3 -3493 -10z"/>
</g>
</svg>
